<svg width="47" height="47" viewBox="0 0 47 47" fill="none" xmlns="http://www.w3.org/2000/svg">
<path id="Spotify Logomark" d="M20.7143 9.54421C16.2414 17.0761 15.8301 29.5 18.0126 36.6901C18.3628 37.8447 17.711 39.0657 16.5564 39.4156C15.4013 39.7655 14.1811 39.1143 13.8301 37.9588C11.3245 29.7051 11.8086 15.9843 16.9557 7.31344C17.572 6.27493 18.9133 5.93424 19.9501 6.54976C20.9886 7.16584 21.331 8.50821 20.7143 9.54421ZM27.3393 9.79087C28.1968 10.3193 28.4657 11.4404 27.9392 12.2967C24.0796 18.5761 22.9615 28.1513 25.2163 35.5802C25.5076 36.5436 24.9643 37.5612 24.0028 37.8536C23.0394 38.1441 22.0238 37.6006 21.7308 36.6391C19.1557 28.1524 20.4029 17.6023 24.8349 10.3902C25.3622 9.53389 26.4841 9.26436 27.3393 9.79087ZM33.7018 12.65C34.3904 13.0699 34.6061 13.9664 34.1864 14.6525C30.8329 20.1397 30.0757 27.0461 31.9334 35.1795C32.1131 35.9633 31.622 36.7443 30.8382 36.9231C30.0547 37.1025 29.2735 36.6134 29.0946 35.8277C27.06 26.9272 27.9356 19.2921 31.699 13.1333C32.1184 12.4466 33.0154 12.2303 33.7018 12.65ZM0 23.3661C0 36.2708 10.4612 46.7324 23.3656 46.7324C36.2713 46.7324 46.7317 36.2708 46.7317 23.3661C46.7317 10.4611 36.2713 3.05176e-05 23.3656 3.05176e-05C10.4612 3.05176e-05 0 10.4611 0 23.3661Z" fill="#FFB703"/>
</svg>
